<svg viewBox="0 0 98 173" xmlns="http://www.w3.org/2000/svg" xml:space="preserve" style="fill-rule:evenodd;clip-rule:evenodd;stroke-linejoin:round;stroke-miterlimit:2"><path d="M46.831.05c8.533 0 26.388 10.055 35.422 24.358C90.723 37.819 98 57.617 98 86.45c0 35.257-9.056 55.818-19.131 66.977-9.718 10.765-15.413 19.523-32.038 19.623-4.615.028-9.796-.05-11.555-5.865-2.333-7.714-14.575-17.37-14.045-27.422.783-14.817 8.973-14.931 7.911-31.332-.942-14.566 2.092-17.059 7.914-27.781 7.746-14.267-9.078-24.382-9.819-39.029-.924-18.247 7.149-19.564 9.896-32.478C38.211 4.073 41.585.05 46.831.05Z" style="fill:#fff"/><path d="m38.05 86.065 4.5 4.6-4.5 4.6 1.4 1.4 6-6-6-6-1.4 1.4Z" style="fill-rule:nonzero"/></svg>