<svg viewBox="0 0 98 173" xmlns="http://www.w3.org/2000/svg" xml:space="preserve" style="fill-rule:evenodd;clip-rule:evenodd;stroke-linejoin:round;stroke-miterlimit:2"><path style="fill:url(#a)" d="M19.478 0h46.226v173H19.478z" transform="matrix(1.25289 0 0 1 -4.926 .05)"/><path d="M27.178 137.928c-3.8 11.131 4.777 20.217 5.215 28.265.177 3.244-3.423 6.769-6.7 6.766-9.712-.009-25.743.091-25.743.091V-.05h26.169c13.84 0 7.071 11.256 16.124 27.884 11.335 20.82-12.255 39.575-9.37 56.93 2.001 12.035 4.046 11.444 3.114 26.011-.817 12.784-4.483 14.481-8.809 27.153Z" style="fill:#fff"/><defs><radialGradient id="a" cx="0" cy="0" r="1" gradientUnits="userSpaceOnUse" gradientTransform="matrix(135.66 -.00336 .00219 138.574 -74.097 86.45)"><stop offset="0" style="stop-color:black;stop-opacity:.33"/><stop offset=".51" style="stop-color:black;stop-opacity:.25"/><stop offset="1" style="stop-color:black;stop-opacity:0"/></radialGradient></defs></svg>