<svg viewBox="0 0 24 24" xmlns="http://www.w3.org/2000/svg" fill-rule="evenodd" clip-rule="evenodd"
    stroke-linejoin="round" stroke-miterlimit="2">
    <g fill="#FFFFFFCF">
        <path
            d="M.343 9.998A5.997 5.997 0 015.35 6.04 7.496 7.496 0 0112 2a7.49 7.49 0 017.35 6.04C21.95 8.22 24 10.36 24 13c0 2.76-2.24 5-5 5h-6.106a4.966 4.966 0 00-.906-2H19c1.65 0 3-1.35 3-3a2.98 2.98 0 00-2.78-2.96l-1.53-.11-.3-1.5A5.503 5.503 0 0012 4C9.94 4 8.08 5.14 7.13 6.97l-.5.95-1.07.11a3.952 3.952 0 00-3.028 1.968H.343z" />
        <path
            d="M10.995 19c0 1.65-1.35 3-3 3s-3-1.35-3-3h2c0 .55.45 1 1 1s1-.45 1-1-.45-1-1-1h-9.5v-2h9.5c1.65 0 3 1.35 3 3zm4.5-8.502c0-1.93-1.57-3.5-3.5-3.5s-3.5 1.57-3.5 3.5h2c0-.83.67-1.5 1.5-1.5s1.5.67 1.5 1.5-.67 1.5-1.5 1.5h-13.5v2h13.5c1.93 0 3.5-1.57 3.5-3.5z"
            fill-rule="nonzero" />
    </g>
</svg>
