<svg viewBox="0 0 24 24" xmlns="http://www.w3.org/2000/svg" xml:space="preserve" fill-rule="evenodd"
    clip-rule="evenodd" stroke-linejoin="round" stroke-miterlimit="2"><path d="m15.25 8.88 5.67 8.52a1.95 1.95 0 0 1 .33 1.18c0 .68-.23 1.25-.7 1.72s-1.04.7-1.73.7H5.22a2.4 2.4 0 0 1-1.76-.71 2.52 2.52 0 0 1-.64-2.35 2 2 0 0 1 .23-.54l5.7-8.53c.17-.23.3-.49.38-.77.08-.28.12-.57.12-.85V4.5h-.5A.72.72 0 0 1 8 3.75.72.72 0 0 1 8.75 3h6.5a.73.73 0 0 1 .75.75.73.73 0 0 1-.75.75h-.5v2.75a2.79 2.79 0 0 0 .5 1.62Zm-8.37 5.49-.06.09-2.5 3.74a.6.6 0 0 0-.04.12.94.94 0 0 0 .24.91 1 1 0 0 0 .7.27h13.6a.9.9 0 0 0 .67-.26.9.9 0 0 0 .26-.66c0-.09 0-.17-.02-.23a.46.46 0 0 0-.05-.12l-3.73-5.6L14 9.7a3.88 3.88 0 0 1-.56-1.15 4.54 4.54 0 0 1-.19-1.3V4.5h-2.5v2.75a4.3 4.3 0 0 1-.73 2.42l-3.14 4.7Z"/><path d="M6.82 14.46 3.45 19.5h17.07l-4.57-6.87c.03.06.04.12.01.18a.19.19 0 0 1-.14.11c-.58.12-1.16.33-1.73.62-.58.29-1.44.81-2.59 1.56-.87.58-1.53.97-2 1.17-.47.2-.93.3-1.4.3-.42 0-.77-.13-1.05-.4a1.33 1.33 0 0 1-.36-1.4c.03-.1.07-.2.13-.31Z" fill-opacity=".3"/></svg>
